<svg xmlns="http://www.w3.org/2000/svg" viewBox="0 0 48 48"><!-- Reshot | Free icons & illustrations - https://www.reshot.com/free-svg-icons/item/globe-PL5973EKAD/ License - https://www.reshot.com/license/ --><defs><style>.cls-1{fill:#007090;}</style></defs><title>Asset 59ldpi</title><g id="Layer_2" data-name="Layer 2"><g id="layer_1-2" data-name="layer 1"><path class="cls-1" d="M24,48A24,24,0,1,1,48,24,24,24,0,0,1,24,48ZM24,2A22,22,0,1,0,46,24,22,22,0,0,0,24,2Z"/><path class="cls-1" d="M24,48c-7.85,0-14-10.54-14-24S16.15,0,24,0,38,10.54,38,24,31.85,48,24,48ZM24,2c-6.62,0-12,9.87-12,22s5.38,22,12,22,12-9.87,12-22S30.62,2,24,2Z"/><rect class="cls-1" x="23" y="4" width="2" height="43"/><rect class="cls-1" x="1" y="23" width="33" height="2"/><rect class="cls-1" x="37" y="23" width="10" height="2"/><rect class="cls-1" x="7" y="12" width="37" height="2"/><rect class="cls-1" x="4" y="34" width="8" height="2"/><rect class="cls-1" x="16" y="34" width="28" height="2"/></g></g></svg>