<?xml version="1.0" encoding="UTF-8" ?>
<!DOCTYPE svg PUBLIC "-//W3C//DTD SVG 1.1//EN" "http://www.w3.org/Graphics/SVG/1.1/DTD/svg11.dtd">
<svg width="250pt" height="250pt" viewBox="0 0 250 250" version="1.1" xmlns="http://www.w3.org/2000/svg">
<g id="#606974ff">
<path fill="#606974" stroke="#606974" stroke-width="0.09375" opacity="1.00" d=" M 145.72 11.71 C 152.14 8.99 159.82 9.40 165.71 13.23 C 167.54 14.69 169.23 16.32 170.95 17.91 C 173.59 23.28 175.45 28.98 177.45 34.61 C 186.23 59.16 194.97 83.73 203.78 108.27 C 205.47 113.03 207.42 117.85 207.46 122.98 C 207.51 131.22 204.82 139.16 201.63 146.65 C 195.65 160.26 187.50 172.78 178.73 184.74 C 174.76 190.48 169.36 195.43 162.60 197.59 C 136.75 206.73 111.00 216.15 85.12 225.15 C 80.77 225.99 76.30 225.29 72.18 223.77 C 67.19 221.23 63.25 216.77 61.57 211.40 C 45.91 167.46 30.14 123.55 14.52 79.60 C 10.96 69.77 16.47 57.89 26.36 54.42 C 66.13 40.13 105.96 26.03 145.72 11.71 M 148.88 14.97 C 108.88 29.28 68.85 43.53 28.85 57.86 C 23.37 59.62 18.89 64.33 17.85 70.05 C 16.83 74.19 18.32 78.33 19.74 82.17 C 35.06 124.90 50.26 167.68 65.58 210.42 C 68.20 218.78 78.25 223.76 86.43 220.40 C 111.73 211.39 137.02 202.35 162.30 193.28 C 165.23 192.34 166.61 189.33 167.52 186.64 C 169.02 181.73 167.75 176.55 165.93 171.92 C 164.93 169.90 163.92 167.89 162.92 165.88 C 161.97 161.95 160.22 158.11 160.52 153.99 C 160.73 147.98 164.68 142.74 169.55 139.52 C 176.89 134.58 185.70 132.82 193.94 129.94 C 198.41 128.52 201.45 124.29 202.55 119.89 C 202.55 116.96 201.37 114.19 200.52 111.43 C 190.16 82.48 179.84 53.50 169.46 24.56 C 166.73 16.43 156.88 11.79 148.88 14.97 M 195.12 133.09 C 188.70 135.24 182.01 136.72 175.92 139.79 C 170.38 142.30 164.92 146.65 163.90 153.01 C 162.97 159.74 167.42 165.49 169.39 171.62 C 171.64 176.93 171.58 182.76 171.04 188.40 C 174.62 185.11 177.23 180.99 180.07 177.09 C 184.82 170.41 189.20 163.46 193.16 156.28 C 198.11 146.80 202.99 136.91 204.03 126.11 C 201.41 128.83 198.86 131.93 195.12 133.09 Z" />
</g>
<g id="#0000001e">
</g>
<g id="#f3f3f3ff">
<path fill="#f3f3f3" stroke="#f3f3f3" stroke-width="0.09375" opacity="1.00" d=" M 148.88 14.97 C 156.88 11.79 166.73 16.43 169.46 24.56 C 179.84 53.50 190.16 82.48 200.52 111.43 C 201.37 114.19 202.55 116.96 202.55 119.89 C 201.45 124.29 198.41 128.52 193.94 129.94 C 185.70 132.82 176.89 134.58 169.55 139.52 C 164.68 142.74 160.73 147.98 160.52 153.99 C 160.22 158.11 161.97 161.95 162.92 165.88 C 160.94 166.21 158.96 166.57 156.98 166.93 C 154.98 162.12 153.15 157.23 151.53 152.28 C 149.96 147.81 148.88 142.89 145.28 139.53 C 140.99 142.70 136.78 145.99 132.64 149.37 C 133.83 150.82 134.89 152.47 136.47 153.55 C 138.30 154.75 140.28 153.21 142.08 152.76 C 144.41 158.46 146.36 164.30 148.35 170.12 C 146.13 171.11 143.91 172.09 141.70 173.09 C 142.52 175.51 143.35 179.39 146.80 178.48 C 153.28 176.63 159.52 174.01 165.93 171.92 C 167.75 176.55 169.02 181.73 167.52 186.64 C 166.61 189.33 165.23 192.34 162.30 193.28 C 137.02 202.35 111.73 211.39 86.43 220.40 C 78.25 223.76 68.20 218.78 65.58 210.42 C 50.26 167.68 35.06 124.90 19.74 82.17 C 18.32 78.33 16.83 74.19 17.85 70.05 C 18.89 64.33 23.37 59.62 28.85 57.86 C 68.85 43.53 108.88 29.28 148.88 14.97 M 144.74 30.75 C 140.79 33.61 136.94 36.64 133.29 39.87 C 134.75 41.35 135.97 43.24 137.96 44.08 C 139.58 45.16 140.98 43.14 142.41 42.61 C 145.19 48.40 147.08 54.58 149.02 60.69 C 146.78 61.50 144.55 62.31 142.32 63.15 C 143.01 64.99 143.69 66.84 144.38 68.69 C 151.92 68.72 158.46 64.24 165.65 62.52 C 165.62 60.79 165.58 59.05 165.56 57.32 C 163.09 55.69 160.31 56.46 157.74 57.39 C 154.03 49.02 151.73 40.11 148.23 31.66 C 147.33 30.79 145.91 29.55 144.74 30.75 M 106.12 48.15 C 105.45 49.00 103.65 49.54 104.06 50.87 C 105.15 53.06 107.28 54.40 109.42 55.41 C 110.57 54.69 111.72 53.99 112.89 53.29 C 115.02 59.32 117.73 65.19 119.01 71.48 C 116.86 72.19 114.73 72.96 112.65 73.83 C 113.19 75.51 113.73 77.18 114.25 78.87 C 115.86 79.23 117.57 79.87 119.18 79.13 C 124.68 77.26 130.01 74.85 135.64 73.34 C 135.64 71.72 135.64 70.10 135.64 68.48 C 134.76 67.86 133.89 67.25 133.01 66.63 C 131.32 67.08 129.64 67.53 127.95 67.98 C 124.28 59.98 122.24 51.35 118.69 43.29 C 118.11 42.13 116.98 41.38 116.13 40.44 C 112.77 42.99 109.42 45.54 106.12 48.15 M 80.32 53.28 C 75.52 54.65 71.54 58.82 71.14 63.91 C 70.51 71.23 73.26 78.62 77.54 84.48 C 82.54 91.27 93.74 91.61 99.15 85.15 C 102.66 81.79 101.65 76.57 101.56 72.23 C 100.39 65.49 97.42 58.39 91.43 54.59 C 88.17 52.45 83.99 51.93 80.32 53.28 M 46.38 65.50 C 41.86 66.42 37.50 69.54 36.26 74.16 C 34.85 79.67 36.16 85.49 38.39 90.61 C 40.25 95.01 43.08 99.40 47.63 101.35 C 52.84 103.92 59.29 102.20 63.46 98.46 C 67.10 94.58 67.20 88.74 66.10 83.83 C 64.49 77.69 61.93 71.21 56.46 67.52 C 53.57 65.44 49.84 64.71 46.38 65.50 M 162.39 78.65 C 158.46 79.95 155.06 83.20 154.09 87.29 C 152.71 92.53 154.26 97.98 156.16 102.88 C 158.12 107.73 161.37 112.63 166.55 114.38 C 174.17 117.39 184.80 111.73 184.63 103.01 C 184.68 96.81 182.80 90.61 179.58 85.34 C 176.15 79.71 168.83 76.00 162.39 78.65 M 127.32 91.25 C 122.84 92.60 119.01 96.41 118.42 101.17 C 117.48 108.69 120.25 116.34 124.67 122.34 C 129.44 128.88 140.18 129.77 145.66 123.66 C 150.23 119.89 148.50 113.37 148.45 108.23 C 146.69 101.59 143.39 94.23 136.60 91.47 C 133.70 90.11 130.30 90.24 127.32 91.25 M 93.36 103.45 C 88.84 104.42 84.54 107.68 83.35 112.29 C 81.88 117.74 83.34 123.48 85.53 128.53 C 87.36 132.63 89.84 136.84 94.02 138.91 C 99.45 141.96 106.70 140.36 110.90 135.97 C 114.30 132.34 113.96 126.98 113.37 122.41 C 112.23 117.51 110.49 112.59 107.34 108.61 C 103.96 104.73 98.55 102.01 93.36 103.45 M 62.47 114.26 C 58.42 117.70 54.11 120.81 50.00 124.18 C 51.27 125.57 52.35 127.21 53.97 128.22 C 55.89 129.01 57.90 128.06 59.81 127.71 C 61.71 133.62 64.18 139.34 65.86 145.33 C 63.62 146.00 61.40 146.71 59.16 147.40 C 59.91 149.96 60.45 153.91 64.01 153.48 C 70.37 151.52 76.56 148.96 82.86 146.79 C 82.53 144.37 81.94 141.90 80.00 140.24 C 78.10 140.83 76.18 141.39 74.25 141.88 C 71.29 133.69 68.39 125.48 65.51 117.26 C 65.17 115.72 63.61 115.12 62.47 114.26 M 109.34 152.38 C 104.89 153.72 101.01 157.43 100.41 162.16 C 99.44 169.71 102.14 177.41 106.55 183.47 C 111.50 190.34 122.83 190.75 128.35 184.40 C 131.77 180.51 130.63 174.96 130.51 170.24 C 129.12 163.84 126.16 157.19 120.39 153.60 C 117.16 151.45 112.97 151.21 109.34 152.38 M 67.43 172.89 C 68.86 174.35 70.00 176.29 71.95 177.10 C 73.69 177.93 75.32 176.38 76.94 175.93 C 79.11 181.83 81.34 187.71 83.15 193.72 C 80.96 194.52 78.77 195.31 76.58 196.11 C 77.16 197.98 77.76 199.85 78.36 201.72 C 85.92 201.75 92.55 197.51 99.66 195.52 C 99.63 193.79 99.61 192.07 99.60 190.34 C 97.14 188.63 94.32 189.57 91.73 190.40 C 89.45 184.52 87.33 178.59 85.25 172.64 C 83.96 169.20 83.53 164.95 80.08 162.87 C 75.78 166.11 71.38 169.23 67.43 172.89 Z" />
<path fill="#f3f3f3" stroke="#f3f3f3" stroke-width="0.09375" opacity="1.00" d=" M 83.20 59.92 C 84.71 58.83 86.49 60.46 87.45 61.60 C 90.24 65.18 91.82 69.61 92.68 74.03 C 93.24 77.11 93.06 81.35 89.76 82.83 C 86.89 83.91 85.29 80.88 84.16 78.80 C 81.78 73.95 79.52 68.54 80.56 63.02 C 80.74 61.58 82.11 60.69 83.20 59.92 Z" />
<path fill="#f3f3f3" stroke="#f3f3f3" stroke-width="0.09375" opacity="1.00" d=" M 47.17 72.80 C 50.05 71.20 52.35 74.15 53.56 76.41 C 55.99 81.14 58.23 86.56 57.20 91.96 C 56.89 94.52 53.21 97.16 51.17 94.82 C 48.30 91.64 46.92 87.44 45.51 83.47 C 44.24 79.95 43.73 75.27 47.17 72.80 Z" />
<path fill="#f3f3f3" stroke="#f3f3f3" stroke-width="0.09375" opacity="1.00" d=" M 166.25 85.20 C 169.01 84.39 170.47 87.39 171.65 89.30 C 173.95 93.78 175.97 98.86 175.26 103.98 C 175.07 106.65 171.97 109.61 169.37 107.73 C 167.35 105.83 166.25 103.21 165.17 100.71 C 163.69 97.01 162.02 93.09 162.70 89.01 C 163.21 87.31 164.26 85.36 166.25 85.20 Z" />
<path fill="#f3f3f3" stroke="#f3f3f3" stroke-width="0.09375" opacity="1.00" d=" M 130.20 97.84 C 132.42 96.64 134.32 98.92 135.41 100.58 C 137.91 104.62 139.68 109.22 140.00 113.98 C 140.16 116.55 139.53 119.88 136.72 120.79 C 134.53 121.72 132.95 119.55 132.03 117.89 C 129.29 112.75 126.48 107.02 127.60 101.03 C 127.81 99.59 129.16 98.69 130.20 97.84 Z" />
<path fill="#f3f3f3" stroke="#f3f3f3" stroke-width="0.09375" opacity="1.00" d=" M 94.17 110.80 C 95.80 109.95 98.03 110.25 99.04 111.90 C 102.31 116.23 104.24 121.63 104.70 127.01 C 105.05 130.12 102.80 134.64 99.09 133.35 C 95.28 130.14 94.08 124.97 92.46 120.47 C 91.18 117.24 91.12 113.08 94.17 110.80 Z" />
<path fill="#f3f3f3" stroke="#f3f3f3" stroke-width="0.09375" opacity="1.00" d=" M 109.44 162.96 C 109.38 160.72 111.64 159.70 112.96 158.29 C 119.18 161.14 121.01 168.83 121.97 175.00 C 122.87 178.46 119.47 184.25 115.65 181.36 C 111.76 176.17 108.88 169.58 109.44 162.96 Z" />
</g>
<g id="#01020252">
</g>
<g id="#55585bff">
<path fill="#55585b" stroke="#55585b" stroke-width="0.09375" opacity="1.00" d=" M 144.74 30.75 C 145.91 29.55 147.33 30.79 148.23 31.66 C 151.73 40.11 154.03 49.02 157.74 57.39 C 160.31 56.46 163.09 55.69 165.56 57.32 C 165.58 59.05 165.62 60.79 165.65 62.52 C 158.46 64.24 151.92 68.72 144.38 68.69 C 143.69 66.84 143.01 64.99 142.32 63.15 C 144.55 62.31 146.78 61.50 149.02 60.69 C 147.08 54.58 145.19 48.40 142.41 42.61 C 140.98 43.14 139.58 45.16 137.96 44.08 C 135.97 43.24 134.75 41.35 133.29 39.87 C 136.94 36.64 140.79 33.61 144.74 30.75 Z" />
<path fill="#55585b" stroke="#55585b" stroke-width="0.09375" opacity="1.00" d=" M 106.12 48.15 C 109.42 45.54 112.77 42.99 116.13 40.44 C 116.98 41.38 118.11 42.13 118.69 43.29 C 122.24 51.35 124.28 59.98 127.95 67.98 C 129.64 67.53 131.32 67.08 133.01 66.63 C 133.89 67.25 134.76 67.86 135.64 68.48 C 135.64 70.10 135.64 71.72 135.64 73.34 C 130.01 74.85 124.68 77.26 119.18 79.13 C 117.57 79.87 115.86 79.23 114.25 78.87 C 113.73 77.18 113.19 75.51 112.65 73.83 C 114.73 72.96 116.86 72.19 119.01 71.48 C 117.73 65.19 115.02 59.32 112.89 53.29 C 111.72 53.99 110.57 54.69 109.42 55.41 C 107.28 54.40 105.15 53.06 104.06 50.87 C 103.65 49.54 105.45 49.00 106.12 48.15 Z" />
<path fill="#55585b" stroke="#55585b" stroke-width="0.09375" opacity="1.00" d=" M 80.32 53.28 C 83.99 51.93 88.17 52.45 91.43 54.59 C 97.42 58.39 100.39 65.49 101.56 72.23 C 101.65 76.57 102.66 81.79 99.15 85.15 C 93.74 91.61 82.54 91.27 77.54 84.48 C 73.26 78.62 70.51 71.23 71.14 63.91 C 71.54 58.82 75.52 54.65 80.32 53.28 M 83.20 59.92 C 82.11 60.69 80.74 61.58 80.56 63.02 C 79.52 68.54 81.78 73.95 84.16 78.80 C 85.29 80.88 86.89 83.91 89.76 82.83 C 93.06 81.35 93.24 77.11 92.68 74.03 C 91.82 69.61 90.24 65.18 87.45 61.60 C 86.49 60.46 84.71 58.83 83.20 59.92 Z" />
<path fill="#55585b" stroke="#55585b" stroke-width="0.09375" opacity="1.00" d=" M 46.38 65.50 C 49.84 64.71 53.57 65.44 56.46 67.52 C 61.93 71.21 64.49 77.69 66.10 83.83 C 67.20 88.74 67.10 94.58 63.46 98.46 C 59.29 102.20 52.84 103.92 47.63 101.35 C 43.08 99.40 40.25 95.01 38.39 90.61 C 36.16 85.49 34.85 79.67 36.26 74.16 C 37.50 69.54 41.86 66.42 46.38 65.50 M 47.17 72.80 C 43.73 75.27 44.24 79.95 45.51 83.47 C 46.92 87.44 48.30 91.64 51.17 94.82 C 53.21 97.16 56.89 94.52 57.20 91.96 C 58.23 86.56 55.99 81.14 53.56 76.41 C 52.35 74.15 50.05 71.20 47.17 72.80 Z" />
<path fill="#55585b" stroke="#55585b" stroke-width="0.09375" opacity="1.00" d=" M 162.39 78.65 C 168.83 76.00 176.15 79.71 179.58 85.34 C 182.80 90.61 184.68 96.81 184.63 103.01 C 184.80 111.73 174.17 117.39 166.55 114.38 C 161.37 112.63 158.12 107.73 156.16 102.88 C 154.26 97.98 152.71 92.53 154.09 87.29 C 155.06 83.20 158.46 79.95 162.39 78.65 M 166.25 85.20 C 164.26 85.36 163.21 87.31 162.70 89.01 C 162.02 93.09 163.69 97.01 165.17 100.71 C 166.25 103.21 167.35 105.83 169.37 107.73 C 171.97 109.61 175.07 106.65 175.26 103.98 C 175.97 98.86 173.95 93.78 171.65 89.30 C 170.47 87.39 169.01 84.39 166.25 85.20 Z" />
<path fill="#55585b" stroke="#55585b" stroke-width="0.09375" opacity="1.00" d=" M 127.32 91.25 C 130.30 90.24 133.70 90.11 136.60 91.47 C 143.39 94.23 146.69 101.59 148.45 108.23 C 148.50 113.37 150.23 119.89 145.66 123.66 C 140.18 129.77 129.44 128.88 124.67 122.34 C 120.25 116.34 117.48 108.69 118.42 101.17 C 119.01 96.41 122.84 92.60 127.32 91.25 M 130.20 97.84 C 129.16 98.69 127.81 99.59 127.60 101.03 C 126.48 107.02 129.29 112.75 132.03 117.89 C 132.95 119.55 134.53 121.72 136.72 120.79 C 139.53 119.88 140.16 116.55 140.00 113.98 C 139.68 109.22 137.91 104.62 135.41 100.58 C 134.32 98.92 132.42 96.64 130.20 97.84 Z" />
<path fill="#55585b" stroke="#55585b" stroke-width="0.09375" opacity="1.00" d=" M 93.36 103.45 C 98.55 102.01 103.96 104.73 107.34 108.61 C 110.49 112.59 112.23 117.51 113.37 122.41 C 113.96 126.98 114.30 132.34 110.90 135.97 C 106.70 140.36 99.45 141.96 94.02 138.91 C 89.84 136.84 87.36 132.63 85.53 128.53 C 83.34 123.48 81.88 117.74 83.35 112.29 C 84.54 107.68 88.84 104.42 93.36 103.45 M 94.17 110.80 C 91.12 113.08 91.18 117.24 92.46 120.47 C 94.08 124.97 95.28 130.14 99.09 133.35 C 102.80 134.64 105.05 130.12 104.70 127.01 C 104.24 121.63 102.31 116.23 99.04 111.90 C 98.03 110.25 95.80 109.95 94.17 110.80 Z" />
<path fill="#55585b" stroke="#55585b" stroke-width="0.09375" opacity="1.00" d=" M 62.47 114.26 C 63.61 115.12 65.17 115.72 65.51 117.26 C 68.39 125.48 71.29 133.69 74.25 141.88 C 76.18 141.39 78.10 140.83 80.00 140.24 C 81.94 141.90 82.53 144.37 82.86 146.79 C 76.56 148.96 70.37 151.52 64.01 153.48 C 60.45 153.91 59.91 149.96 59.16 147.40 C 61.40 146.71 63.62 146.00 65.86 145.33 C 64.18 139.34 61.71 133.62 59.81 127.71 C 57.90 128.06 55.89 129.01 53.97 128.22 C 52.35 127.21 51.27 125.57 50.00 124.18 C 54.11 120.81 58.42 117.70 62.47 114.26 Z" />
<path fill="#55585b" stroke="#55585b" stroke-width="0.09375" opacity="1.00" d=" M 132.64 149.37 C 136.78 145.99 140.99 142.70 145.28 139.53 C 148.88 142.89 149.96 147.81 151.53 152.28 C 153.15 157.23 154.98 162.12 156.98 166.93 C 158.96 166.57 160.94 166.21 162.92 165.88 C 163.92 167.89 164.93 169.90 165.93 171.92 C 159.52 174.01 153.28 176.63 146.80 178.48 C 143.35 179.39 142.52 175.51 141.70 173.09 C 143.91 172.09 146.13 171.11 148.35 170.12 C 146.36 164.30 144.41 158.46 142.08 152.76 C 140.28 153.21 138.30 154.75 136.47 153.55 C 134.89 152.47 133.83 150.82 132.64 149.37 Z" />
<path fill="#55585b" stroke="#55585b" stroke-width="0.09375" opacity="1.00" d=" M 109.34 152.38 C 112.97 151.21 117.16 151.45 120.39 153.60 C 126.16 157.19 129.12 163.84 130.51 170.24 C 130.63 174.96 131.77 180.51 128.35 184.40 C 122.83 190.75 111.50 190.34 106.55 183.47 C 102.14 177.41 99.44 169.71 100.41 162.16 C 101.01 157.43 104.89 153.72 109.34 152.38 M 109.44 162.96 C 108.88 169.58 111.76 176.17 115.65 181.36 C 119.47 184.25 122.87 178.46 121.97 175.00 C 121.01 168.83 119.18 161.14 112.96 158.29 C 111.64 159.70 109.38 160.72 109.44 162.96 Z" />
<path fill="#55585b" stroke="#55585b" stroke-width="0.09375" opacity="1.00" d=" M 67.43 172.89 C 71.38 169.23 75.78 166.11 80.08 162.87 C 83.53 164.95 83.96 169.20 85.25 172.64 C 87.33 178.59 89.45 184.52 91.73 190.40 C 94.32 189.57 97.14 188.63 99.60 190.34 C 99.61 192.07 99.63 193.79 99.66 195.52 C 92.55 197.51 85.92 201.75 78.36 201.72 C 77.76 199.85 77.16 197.98 76.58 196.11 C 78.77 195.31 80.96 194.52 83.15 193.72 C 81.34 187.71 79.11 181.83 76.94 175.93 C 75.32 176.38 73.69 177.93 71.95 177.10 C 70.00 176.29 68.86 174.35 67.43 172.89 Z" />
</g>
<g id="#cdccccff">
<path fill="#cdcccc" stroke="#cdcccc" stroke-width="0.09375" opacity="1.00" d=" M 195.12 133.09 C 198.86 131.93 201.41 128.83 204.03 126.11 C 202.99 136.91 198.11 146.80 193.16 156.28 C 189.20 163.46 184.82 170.41 180.07 177.09 C 177.23 180.99 174.62 185.11 171.04 188.40 C 171.58 182.76 171.64 176.93 169.39 171.62 C 167.42 165.49 162.97 159.74 163.90 153.01 C 164.92 146.65 170.38 142.30 175.92 139.79 C 182.01 136.72 188.70 135.24 195.12 133.09 Z" />
</g>
</svg>
