<?xml version="1.0" encoding="utf-8"?>
<!-- Generator: Adobe Illustrator 24.0.0, SVG Export Plug-In . SVG Version: 6.00 Build 0)  -->
<svg version="1.1" id="Layer_2" xmlns="http://www.w3.org/2000/svg" xmlns:xlink="http://www.w3.org/1999/xlink" x="0px" y="0px"
	 viewBox="0 0 512 512" enable-background="new 0 0 512 512" xml:space="preserve">
<g>
	<g>
		<g>
			<path fill="#6E83B7" d="M128.05,351.96l-41.79,24.13c13.36,18.84,29.78,35.36,48.53,48.85l24.15-41.82
				C147.28,374.19,136.87,363.7,128.05,351.96z"/>
		</g>
		<g>
			<path fill="#6E83B7" d="M97.13,275H48.87c2.13,23.47,8.18,45.82,17.48,66.4l41.83-24.15C102.66,303.97,98.88,289.79,97.13,275z"
				/>
		</g>
		<g>
			<path fill="#6E83B7" d="M346,72l-90-62v38C148.4,48,59.62,130.13,49.06,235h48.31C107.69,156.67,174.9,96,256,96v38L346,72z"/>
		</g>
	</g>
	<g>
		<g>
			<path fill="#6E83B7" d="M383.95,160.04l41.79-24.13c-13.36-18.84-29.78-35.36-48.53-48.85l-24.15,41.82
				C364.72,137.81,375.13,148.3,383.95,160.04z"/>
		</g>
		<g>
			<path fill="#6E83B7" d="M414.87,237h48.26c-2.13-23.47-8.18-45.82-17.48-66.4l-41.83,24.15
				C409.34,208.03,413.12,222.21,414.87,237z"/>
		</g>
		<g>
			<path fill="#6E83B7" d="M166,440l90,62v-38c107.6,0,196.38-82.13,206.94-187h-48.31C404.31,355.33,337.1,416,256,416v-38L166,440
				z"/>
		</g>
	</g>
</g>
</svg>
