<?xml version="1.0" encoding="UTF-8"?>
<svg id="uuid-e1b597d5-a209-451c-a1c9-5790e1dda4e7" data-name="Calque 2" xmlns="http://www.w3.org/2000/svg" viewBox="0 0 500 500">
  <defs>
    <style>
      .uuid-354ed368-7f08-4325-9fe8-29aeca931368 {
        fill: #666;
        fill-rule: evenodd;
        stroke-width: 0px;
      }
    </style>
  </defs>
  <g id="uuid-0facbef4-6436-40a7-8101-18ffbd5d9dbe" data-name="Calque 1">
    <path class="uuid-354ed368-7f08-4325-9fe8-29aeca931368" d="m249.91,182.3c36.91,0,67.38,30.29,67.54,67.25.16,37-30.11,67.51-66.96,67.83-37.22.32-68.12-30.27-68.12-67.54,0-37.01,30.48-67.54,67.54-67.54Z"/>
    <path class="uuid-354ed368-7f08-4325-9fe8-29aeca931368" d="m500,284.12v-68.02c-28.18-7.19-60.08-19.34-68.73-47.11-7.61-24.42,6.45-49.79,19.96-71.5-16.37-16.18-32.75-32.36-49.12-48.54-24.44,14.85-54.89,28.81-80.43,15.95C298.65,53.31,290.37,25.09,284.41,0,262.57,0,238.62,0,215.88,0c-6.74,28.37-19.46,60.19-47.37,68.59-24.26,7.3-49.36-6.46-70.96-19.7-12.9,13.18-30.33,31-47.99,49.11,9.96,21.94,23.23,47.12,19,71.67-5.05,29.32-39.73,38.88-68.56,46.24v68.17c28.3,6.9,60.16,19.4,68.6,47.27,7.33,24.21-6.46,49.26-19.71,70.8,16.04,16.21,32.08,32.43,48.12,48.64,21.68-13.12,46.78-26.74,71.07-19.53,28.08,8.34,41.13,40.2,47.77,68.73,22.74,0,45.48,0,68.23-.01,6.94-28.12,19.06-59.85,46.67-68.61,24.47-7.76,50.02,6.23,71.88,19.68,16.07-16.16,32.14-32.31,48.2-48.47-13.44-22.11-27.38-48.01-19.22-72.56,9.06-27.24,40.54-38.94,68.38-45.92Zm-249.87,81.61c-64.14.08-116.63-53.28-115.87-117.03.75-62.63,52.62-114.18,115.87-114.41,63.27.25,115.16,52.07,115.58,114.99.42,63.58-51.86,116.37-115.58,116.45Z"/>
  </g>
</svg>